<?xml version="1.0" encoding="UTF-8"?>
<svg xmlns="http://www.w3.org/2000/svg" width="512" height="512" viewBox="0 0 512 512"><g><path d="M128,40a88,88,0,1,0,88,88A88.1,88.1,0,0,0,128,40Zm0,160a72,72,0,1,1,72-72A72.081,72.081,0,0,1,128,200Z"/><path d="M144,112a8,8,0,0,0,0-16h-8a8,8,0,0,0-16,0h-8a8,8,0,0,0-8,8v24a8,8,0,0,0,8,8h24v8H112a8,8,0,0,0,0,16h8a8,8,0,0,0,16,0h8a8,8,0,0,0,8-8V128a8,8,0,0,0-8-8H120v-8Z"/><path d="M220,8H36A28.032,28.032,0,0,0,8,36V220a28.032,28.032,0,0,0,28,28H220a28.032,28.032,0,0,0,28-28V36A28.032,28.032,0,0,0,220,8Zm12,212a12.013,12.013,0,0,1-12,12H36a12.013,12.013,0,0,1-12-12V36A12.013,12.013,0,0,1,36,24H220a12.013,12.013,0,0,1,12,12Z"/><path d="M476,8H292a28.032,28.032,0,0,0-28,28V220a28.032,28.032,0,0,0,28,28H476a28.032,28.032,0,0,0,28-28V36A28.032,28.032,0,0,0,476,8Zm12,212a12.013,12.013,0,0,1-12,12H292a12.013,12.013,0,0,1-12-12V36a12.013,12.013,0,0,1,12-12H476a12.013,12.013,0,0,1,12,12Z"/><path d="M220,264H36A28.032,28.032,0,0,0,8,292V476a28.032,28.032,0,0,0,28,28H220a28.032,28.032,0,0,0,28-28V292A28.032,28.032,0,0,0,220,264Zm12,212a12.013,12.013,0,0,1-12,12H36a12.013,12.013,0,0,1-12-12V292a12.013,12.013,0,0,1,12-12H220a12.013,12.013,0,0,1,12,12Z"/><path d="M476,264H292a28.031,28.031,0,0,0-28,28V476a28.031,28.031,0,0,0,28,28H476a28.031,28.031,0,0,0,28-28V292A28.031,28.031,0,0,0,476,264Zm12,212a12.01,12.01,0,0,1-12,12H292a12.01,12.01,0,0,1-12-12V292a12.01,12.01,0,0,1,12-12H476a12.01,12.01,0,0,1,12,12Z"/><path d="M439.972,359.335A8,8,0,0,0,432,352H416V340a28.032,28.032,0,0,0-28-28h-8a28.032,28.032,0,0,0-28,28v12H336a8,8,0,0,0-7.972,7.335l-8,96A8,8,0,0,0,328,464H440a8,8,0,0,0,7.972-8.665ZM368,340a12.013,12.013,0,0,1,12-12h8a12.013,12.013,0,0,1,12,12v12H368ZM336.694,448l6.667-80H352v8a8,8,0,0,0,16,0v-8h32v8a8,8,0,0,0,16,0v-8h8.639l6.667,80Z"/></g></svg>
