<svg id="Icons" height="512" viewBox="0 0 74 74" width="512" xmlns="http://www.w3.org/2000/svg"><path d="m52.29 53.632h-46.64a3.649 3.649 0 0 1 -3.65-3.639v-34.531a3.655 3.655 0 0 1 3.65-3.65h54.7a3.655 3.655 0 0 1 3.65 3.65v27.071a1 1 0 0 1 -2 0v-27.071a1.652 1.652 0 0 0 -1.65-1.65h-54.7a1.652 1.652 0 0 0 -1.65 1.65v34.531a1.646 1.646 0 0 0 1.65 1.639h46.64a1 1 0 0 1 0 2z"/><path d="m63 28.048h-60a1 1 0 0 1 -1-1v-6.736a1 1 0 0 1 1-1h60a1 1 0 0 1 1 1v6.736a1 1 0 0 1 -1 1zm-59-2h58v-4.736h-58z"/><path d="m22 45.254h-12.712a1 1 0 0 1 -1-1v-6.025a1 1 0 0 1 1-1h12.712a1 1 0 0 1 1 1v6.025a1 1 0 0 1 -1 1zm-11.712-2h10.712v-4.025h-10.712z"/><path d="m61.625 62.188a10.375 10.375 0 1 1 10.375-10.376 10.387 10.387 0 0 1 -10.375 10.376zm0-18.75a8.375 8.375 0 1 0 8.375 8.374 8.384 8.384 0 0 0 -8.375-8.374z"/><path d="m59.753 55.749a1 1 0 0 1 -.707-.293l-2.128-2.128a1 1 0 0 1 1.414-1.414l1.421 1.42 5.165-5.165a1 1 0 0 1 1.414 1.414l-5.872 5.873a1 1 0 0 1 -.707.293z"/></svg>